<mxfile host="app.diagrams.net" modified="2023-03-27T08:44:58.212Z" agent="Mozilla/5.0 (Windows NT 10.0; Win64; x64) AppleWebKit/537.36 (KHTML, like Gecko) Chrome/111.0.0.0 Safari/537.36" etag="D6gbRZJtvU3oRwr6_KNQ" version="21.1.1" type="device">
  <diagram id="C5RBs43oDa-KdzZeNtuy" name="Page-1">
    <mxGraphModel dx="2271" dy="2009" grid="1" gridSize="10" guides="1" tooltips="1" connect="1" arrows="1" fold="1" page="1" pageScale="1" pageWidth="827" pageHeight="1169" math="0" shadow="0">
      <root>
        <mxCell id="WIyWlLk6GJQsqaUBKTNV-0" />
        <mxCell id="WIyWlLk6GJQsqaUBKTNV-1" parent="WIyWlLk6GJQsqaUBKTNV-0" />
        <mxCell id="WIyWlLk6GJQsqaUBKTNV-2" value="" style="rounded=0;html=1;jettySize=auto;orthogonalLoop=1;fontSize=11;endArrow=block;endFill=0;endSize=8;strokeWidth=1;shadow=0;labelBackgroundColor=none;edgeStyle=orthogonalEdgeStyle;" parent="WIyWlLk6GJQsqaUBKTNV-1" source="WIyWlLk6GJQsqaUBKTNV-3" target="WIyWlLk6GJQsqaUBKTNV-6" edge="1">
          <mxGeometry relative="1" as="geometry" />
        </mxCell>
        <mxCell id="FDjeqGqszoiqw4Emiiqc-3" style="edgeStyle=orthogonalEdgeStyle;rounded=0;orthogonalLoop=1;jettySize=auto;html=1;" edge="1" parent="WIyWlLk6GJQsqaUBKTNV-1" source="WIyWlLk6GJQsqaUBKTNV-3" target="FDjeqGqszoiqw4Emiiqc-4">
          <mxGeometry relative="1" as="geometry">
            <mxPoint x="40" y="80" as="targetPoint" />
          </mxGeometry>
        </mxCell>
        <mxCell id="FDjeqGqszoiqw4Emiiqc-24" style="edgeStyle=orthogonalEdgeStyle;rounded=0;orthogonalLoop=1;jettySize=auto;html=1;" edge="1" parent="WIyWlLk6GJQsqaUBKTNV-1" source="WIyWlLk6GJQsqaUBKTNV-3" target="FDjeqGqszoiqw4Emiiqc-25">
          <mxGeometry relative="1" as="geometry">
            <mxPoint x="400" y="60" as="targetPoint" />
          </mxGeometry>
        </mxCell>
        <mxCell id="FDjeqGqszoiqw4Emiiqc-26" style="edgeStyle=orthogonalEdgeStyle;rounded=0;orthogonalLoop=1;jettySize=auto;html=1;" edge="1" parent="WIyWlLk6GJQsqaUBKTNV-1" source="WIyWlLk6GJQsqaUBKTNV-3" target="FDjeqGqszoiqw4Emiiqc-27">
          <mxGeometry relative="1" as="geometry">
            <mxPoint x="580" y="60" as="targetPoint" />
          </mxGeometry>
        </mxCell>
        <mxCell id="WIyWlLk6GJQsqaUBKTNV-3" value="Välkommen till-sida&lt;br&gt;" style="rounded=1;whiteSpace=wrap;html=1;fontSize=12;glass=0;strokeWidth=1;shadow=0;" parent="WIyWlLk6GJQsqaUBKTNV-1" vertex="1">
          <mxGeometry x="170" y="-50" width="120" height="40" as="geometry" />
        </mxCell>
        <mxCell id="FDjeqGqszoiqw4Emiiqc-2" style="edgeStyle=orthogonalEdgeStyle;rounded=0;orthogonalLoop=1;jettySize=auto;html=1;exitX=0.5;exitY=1;exitDx=0;exitDy=0;" edge="1" parent="WIyWlLk6GJQsqaUBKTNV-1" source="WIyWlLk6GJQsqaUBKTNV-6" target="WIyWlLk6GJQsqaUBKTNV-10">
          <mxGeometry relative="1" as="geometry" />
        </mxCell>
        <mxCell id="WIyWlLk6GJQsqaUBKTNV-6" value="Användarnamn&lt;br&gt;/lösenord" style="rhombus;whiteSpace=wrap;html=1;shadow=0;fontFamily=Helvetica;fontSize=12;align=center;strokeWidth=1;spacing=6;spacingTop=-4;" parent="WIyWlLk6GJQsqaUBKTNV-1" vertex="1">
          <mxGeometry x="155" y="150" width="130" height="100" as="geometry" />
        </mxCell>
        <mxCell id="FDjeqGqszoiqw4Emiiqc-0" value="" style="edgeStyle=orthogonalEdgeStyle;rounded=0;orthogonalLoop=1;jettySize=auto;html=1;" edge="1" parent="WIyWlLk6GJQsqaUBKTNV-1" source="WIyWlLk6GJQsqaUBKTNV-7" target="WIyWlLk6GJQsqaUBKTNV-6">
          <mxGeometry relative="1" as="geometry" />
        </mxCell>
        <mxCell id="WIyWlLk6GJQsqaUBKTNV-7" value="Minska antal försök&lt;br&gt;Fråga &quot;try again&quot;" style="rounded=1;whiteSpace=wrap;html=1;fontSize=12;glass=0;strokeWidth=1;shadow=0;" parent="WIyWlLk6GJQsqaUBKTNV-1" vertex="1">
          <mxGeometry x="390" y="170" width="120" height="60" as="geometry" />
        </mxCell>
        <mxCell id="FDjeqGqszoiqw4Emiiqc-12" style="edgeStyle=orthogonalEdgeStyle;rounded=0;orthogonalLoop=1;jettySize=auto;html=1;exitX=1;exitY=0.5;exitDx=0;exitDy=0;" edge="1" parent="WIyWlLk6GJQsqaUBKTNV-1" source="WIyWlLk6GJQsqaUBKTNV-10" target="WIyWlLk6GJQsqaUBKTNV-12">
          <mxGeometry relative="1" as="geometry" />
        </mxCell>
        <mxCell id="FDjeqGqszoiqw4Emiiqc-13" style="edgeStyle=orthogonalEdgeStyle;rounded=0;orthogonalLoop=1;jettySize=auto;html=1;entryX=0.5;entryY=0;entryDx=0;entryDy=0;" edge="1" parent="WIyWlLk6GJQsqaUBKTNV-1" source="WIyWlLk6GJQsqaUBKTNV-10" target="WIyWlLk6GJQsqaUBKTNV-11">
          <mxGeometry relative="1" as="geometry" />
        </mxCell>
        <mxCell id="FDjeqGqszoiqw4Emiiqc-14" style="edgeStyle=orthogonalEdgeStyle;rounded=0;orthogonalLoop=1;jettySize=auto;html=1;" edge="1" parent="WIyWlLk6GJQsqaUBKTNV-1" source="WIyWlLk6GJQsqaUBKTNV-10" target="FDjeqGqszoiqw4Emiiqc-15">
          <mxGeometry relative="1" as="geometry">
            <mxPoint x="70" y="330" as="targetPoint" />
          </mxGeometry>
        </mxCell>
        <mxCell id="WIyWlLk6GJQsqaUBKTNV-10" value="Min sida/&lt;br&gt;Saldo" style="rhombus;whiteSpace=wrap;html=1;shadow=0;fontFamily=Helvetica;fontSize=12;align=center;strokeWidth=1;spacing=6;spacingTop=-4;" parent="WIyWlLk6GJQsqaUBKTNV-1" vertex="1">
          <mxGeometry x="170" y="360" width="100" height="80" as="geometry" />
        </mxCell>
        <mxCell id="WIyWlLk6GJQsqaUBKTNV-11" value="*Räntor&lt;br&gt;*Aktier&lt;br&gt;*Currency converter" style="rounded=1;whiteSpace=wrap;html=1;fontSize=12;glass=0;strokeWidth=1;shadow=0;" parent="WIyWlLk6GJQsqaUBKTNV-1" vertex="1">
          <mxGeometry x="160" y="490" width="120" height="60" as="geometry" />
        </mxCell>
        <mxCell id="FDjeqGqszoiqw4Emiiqc-53" style="edgeStyle=orthogonalEdgeStyle;rounded=0;orthogonalLoop=1;jettySize=auto;html=1;" edge="1" parent="WIyWlLk6GJQsqaUBKTNV-1" source="WIyWlLk6GJQsqaUBKTNV-12" target="FDjeqGqszoiqw4Emiiqc-54">
          <mxGeometry relative="1" as="geometry">
            <mxPoint x="400" y="500" as="targetPoint" />
          </mxGeometry>
        </mxCell>
        <mxCell id="FDjeqGqszoiqw4Emiiqc-59" value="" style="edgeStyle=orthogonalEdgeStyle;rounded=0;orthogonalLoop=1;jettySize=auto;html=1;" edge="1" parent="WIyWlLk6GJQsqaUBKTNV-1" source="WIyWlLk6GJQsqaUBKTNV-12" target="FDjeqGqszoiqw4Emiiqc-58">
          <mxGeometry relative="1" as="geometry" />
        </mxCell>
        <mxCell id="WIyWlLk6GJQsqaUBKTNV-12" value="Överföringar" style="rounded=1;whiteSpace=wrap;html=1;fontSize=12;glass=0;strokeWidth=1;shadow=0;" parent="WIyWlLk6GJQsqaUBKTNV-1" vertex="1">
          <mxGeometry x="340" y="380" width="120" height="40" as="geometry" />
        </mxCell>
        <mxCell id="FDjeqGqszoiqw4Emiiqc-29" value="" style="edgeStyle=orthogonalEdgeStyle;rounded=0;orthogonalLoop=1;jettySize=auto;html=1;" edge="1" parent="WIyWlLk6GJQsqaUBKTNV-1" source="FDjeqGqszoiqw4Emiiqc-4" target="FDjeqGqszoiqw4Emiiqc-28">
          <mxGeometry relative="1" as="geometry" />
        </mxCell>
        <mxCell id="FDjeqGqszoiqw4Emiiqc-38" style="edgeStyle=orthogonalEdgeStyle;rounded=0;orthogonalLoop=1;jettySize=auto;html=1;" edge="1" parent="WIyWlLk6GJQsqaUBKTNV-1" source="FDjeqGqszoiqw4Emiiqc-4" target="FDjeqGqszoiqw4Emiiqc-35">
          <mxGeometry relative="1" as="geometry" />
        </mxCell>
        <mxCell id="FDjeqGqszoiqw4Emiiqc-4" value="Skapa kund" style="rounded=1;whiteSpace=wrap;html=1;" vertex="1" parent="WIyWlLk6GJQsqaUBKTNV-1">
          <mxGeometry x="-370" y="50" width="120" height="60" as="geometry" />
        </mxCell>
        <mxCell id="FDjeqGqszoiqw4Emiiqc-6" value="Logga in" style="rounded=0;whiteSpace=wrap;html=1;" vertex="1" parent="WIyWlLk6GJQsqaUBKTNV-1">
          <mxGeometry x="170" y="50" width="120" height="60" as="geometry" />
        </mxCell>
        <mxCell id="FDjeqGqszoiqw4Emiiqc-45" style="edgeStyle=orthogonalEdgeStyle;rounded=0;orthogonalLoop=1;jettySize=auto;html=1;" edge="1" parent="WIyWlLk6GJQsqaUBKTNV-1">
          <mxGeometry relative="1" as="geometry">
            <mxPoint x="220" y="295" as="targetPoint" />
            <mxPoint x="180" y="295" as="sourcePoint" />
          </mxGeometry>
        </mxCell>
        <mxCell id="FDjeqGqszoiqw4Emiiqc-16" style="edgeStyle=orthogonalEdgeStyle;rounded=0;orthogonalLoop=1;jettySize=auto;html=1;" edge="1" parent="WIyWlLk6GJQsqaUBKTNV-1" source="FDjeqGqszoiqw4Emiiqc-15" target="FDjeqGqszoiqw4Emiiqc-17">
          <mxGeometry relative="1" as="geometry">
            <mxPoint x="70" y="400" as="targetPoint" />
          </mxGeometry>
        </mxCell>
        <mxCell id="FDjeqGqszoiqw4Emiiqc-51" style="edgeStyle=orthogonalEdgeStyle;rounded=0;orthogonalLoop=1;jettySize=auto;html=1;" edge="1" parent="WIyWlLk6GJQsqaUBKTNV-1" source="FDjeqGqszoiqw4Emiiqc-15" target="FDjeqGqszoiqw4Emiiqc-52">
          <mxGeometry relative="1" as="geometry">
            <mxPoint x="-69.99999999999977" y="400" as="targetPoint" />
          </mxGeometry>
        </mxCell>
        <mxCell id="FDjeqGqszoiqw4Emiiqc-15" value="Konton" style="rounded=0;whiteSpace=wrap;html=1;" vertex="1" parent="WIyWlLk6GJQsqaUBKTNV-1">
          <mxGeometry x="-10" y="370" width="120" height="60" as="geometry" />
        </mxCell>
        <mxCell id="FDjeqGqszoiqw4Emiiqc-20" value="" style="edgeStyle=orthogonalEdgeStyle;rounded=0;orthogonalLoop=1;jettySize=auto;html=1;" edge="1" parent="WIyWlLk6GJQsqaUBKTNV-1" source="FDjeqGqszoiqw4Emiiqc-17" target="FDjeqGqszoiqw4Emiiqc-19">
          <mxGeometry relative="1" as="geometry" />
        </mxCell>
        <mxCell id="FDjeqGqszoiqw4Emiiqc-17" value="Transaktioner" style="rounded=0;whiteSpace=wrap;html=1;" vertex="1" parent="WIyWlLk6GJQsqaUBKTNV-1">
          <mxGeometry x="12.5" y="470" width="75" height="30" as="geometry" />
        </mxCell>
        <mxCell id="FDjeqGqszoiqw4Emiiqc-19" value="Kommande" style="rounded=0;whiteSpace=wrap;html=1;" vertex="1" parent="WIyWlLk6GJQsqaUBKTNV-1">
          <mxGeometry x="-80" y="520" width="70" height="30" as="geometry" />
        </mxCell>
        <mxCell id="FDjeqGqszoiqw4Emiiqc-25" value="*Karriär" style="rounded=0;whiteSpace=wrap;html=1;" vertex="1" parent="WIyWlLk6GJQsqaUBKTNV-1">
          <mxGeometry x="330" y="50" width="120" height="60" as="geometry" />
        </mxCell>
        <mxCell id="FDjeqGqszoiqw4Emiiqc-27" value="*Kontakta oss" style="rounded=0;whiteSpace=wrap;html=1;" vertex="1" parent="WIyWlLk6GJQsqaUBKTNV-1">
          <mxGeometry x="490" y="50" width="120" height="60" as="geometry" />
        </mxCell>
        <mxCell id="FDjeqGqszoiqw4Emiiqc-31" style="edgeStyle=orthogonalEdgeStyle;rounded=0;orthogonalLoop=1;jettySize=auto;html=1;" edge="1" parent="WIyWlLk6GJQsqaUBKTNV-1" source="FDjeqGqszoiqw4Emiiqc-28" target="FDjeqGqszoiqw4Emiiqc-32">
          <mxGeometry relative="1" as="geometry">
            <mxPoint x="-80" y="200" as="targetPoint" />
          </mxGeometry>
        </mxCell>
        <mxCell id="FDjeqGqszoiqw4Emiiqc-33" style="edgeStyle=orthogonalEdgeStyle;rounded=0;orthogonalLoop=1;jettySize=auto;html=1;" edge="1" parent="WIyWlLk6GJQsqaUBKTNV-1" source="FDjeqGqszoiqw4Emiiqc-28" target="FDjeqGqszoiqw4Emiiqc-34">
          <mxGeometry relative="1" as="geometry">
            <mxPoint x="-180" y="270" as="targetPoint" />
          </mxGeometry>
        </mxCell>
        <mxCell id="FDjeqGqszoiqw4Emiiqc-28" value="Ange användarnamn/&lt;br&gt;Lösenord" style="rounded=1;whiteSpace=wrap;html=1;" vertex="1" parent="WIyWlLk6GJQsqaUBKTNV-1">
          <mxGeometry x="-370" y="170" width="120" height="60" as="geometry" />
        </mxCell>
        <mxCell id="FDjeqGqszoiqw4Emiiqc-32" value="Om användarnamn finns, be om nytt" style="rounded=0;whiteSpace=wrap;html=1;" vertex="1" parent="WIyWlLk6GJQsqaUBKTNV-1">
          <mxGeometry x="-180" y="170" width="120" height="60" as="geometry" />
        </mxCell>
        <mxCell id="FDjeqGqszoiqw4Emiiqc-37" style="edgeStyle=orthogonalEdgeStyle;rounded=0;orthogonalLoop=1;jettySize=auto;html=1;" edge="1" parent="WIyWlLk6GJQsqaUBKTNV-1" source="FDjeqGqszoiqw4Emiiqc-34" target="FDjeqGqszoiqw4Emiiqc-35">
          <mxGeometry relative="1" as="geometry">
            <Array as="points">
              <mxPoint x="-20" y="300" />
            </Array>
          </mxGeometry>
        </mxCell>
        <mxCell id="FDjeqGqszoiqw4Emiiqc-34" value="Kund skapad" style="rounded=0;whiteSpace=wrap;html=1;" vertex="1" parent="WIyWlLk6GJQsqaUBKTNV-1">
          <mxGeometry x="-370" y="270" width="120" height="60" as="geometry" />
        </mxCell>
        <mxCell id="FDjeqGqszoiqw4Emiiqc-36" style="edgeStyle=orthogonalEdgeStyle;rounded=0;orthogonalLoop=1;jettySize=auto;html=1;entryX=0;entryY=0.5;entryDx=0;entryDy=0;" edge="1" parent="WIyWlLk6GJQsqaUBKTNV-1" source="FDjeqGqszoiqw4Emiiqc-35" target="FDjeqGqszoiqw4Emiiqc-6">
          <mxGeometry relative="1" as="geometry" />
        </mxCell>
        <mxCell id="FDjeqGqszoiqw4Emiiqc-35" value="Existerande konton" style="rounded=0;whiteSpace=wrap;html=1;" vertex="1" parent="WIyWlLk6GJQsqaUBKTNV-1">
          <mxGeometry x="-40" y="50" width="120" height="60" as="geometry" />
        </mxCell>
        <mxCell id="FDjeqGqszoiqw4Emiiqc-41" style="edgeStyle=orthogonalEdgeStyle;rounded=0;orthogonalLoop=1;jettySize=auto;html=1;entryX=0.9;entryY=0.375;entryDx=0;entryDy=0;entryPerimeter=0;" edge="1" parent="WIyWlLk6GJQsqaUBKTNV-1" source="FDjeqGqszoiqw4Emiiqc-40" target="WIyWlLk6GJQsqaUBKTNV-10">
          <mxGeometry relative="1" as="geometry" />
        </mxCell>
        <mxCell id="FDjeqGqszoiqw4Emiiqc-43" value="" style="edgeStyle=orthogonalEdgeStyle;rounded=0;orthogonalLoop=1;jettySize=auto;html=1;" edge="1" parent="WIyWlLk6GJQsqaUBKTNV-1" source="FDjeqGqszoiqw4Emiiqc-40" target="FDjeqGqszoiqw4Emiiqc-42">
          <mxGeometry relative="1" as="geometry" />
        </mxCell>
        <mxCell id="FDjeqGqszoiqw4Emiiqc-40" value="Logga ut" style="rounded=0;whiteSpace=wrap;html=1;" vertex="1" parent="WIyWlLk6GJQsqaUBKTNV-1">
          <mxGeometry x="270" y="250" width="80" height="40" as="geometry" />
        </mxCell>
        <mxCell id="FDjeqGqszoiqw4Emiiqc-42" value="&quot;Är du säker?&quot;" style="rounded=0;whiteSpace=wrap;html=1;" vertex="1" parent="WIyWlLk6GJQsqaUBKTNV-1">
          <mxGeometry x="430" y="250" width="80" height="40" as="geometry" />
        </mxCell>
        <mxCell id="FDjeqGqszoiqw4Emiiqc-48" value="Rätt lösen" style="ellipse;whiteSpace=wrap;html=1;" vertex="1" parent="WIyWlLk6GJQsqaUBKTNV-1">
          <mxGeometry x="120" y="280" width="60" height="30" as="geometry" />
        </mxCell>
        <mxCell id="FDjeqGqszoiqw4Emiiqc-50" style="edgeStyle=orthogonalEdgeStyle;rounded=0;orthogonalLoop=1;jettySize=auto;html=1;" edge="1" parent="WIyWlLk6GJQsqaUBKTNV-1" source="FDjeqGqszoiqw4Emiiqc-49">
          <mxGeometry relative="1" as="geometry">
            <mxPoint x="330" y="200" as="targetPoint" />
          </mxGeometry>
        </mxCell>
        <mxCell id="FDjeqGqszoiqw4Emiiqc-49" value="Fel lösen" style="ellipse;whiteSpace=wrap;html=1;" vertex="1" parent="WIyWlLk6GJQsqaUBKTNV-1">
          <mxGeometry x="300" y="140" width="60" height="30" as="geometry" />
        </mxCell>
        <mxCell id="FDjeqGqszoiqw4Emiiqc-52" value="Skapa konto" style="rounded=0;whiteSpace=wrap;html=1;" vertex="1" parent="WIyWlLk6GJQsqaUBKTNV-1">
          <mxGeometry x="-250" y="500" width="110" height="50" as="geometry" />
        </mxCell>
        <mxCell id="FDjeqGqszoiqw4Emiiqc-63" value="" style="edgeStyle=orthogonalEdgeStyle;rounded=0;orthogonalLoop=1;jettySize=auto;html=1;" edge="1" parent="WIyWlLk6GJQsqaUBKTNV-1" source="FDjeqGqszoiqw4Emiiqc-54" target="FDjeqGqszoiqw4Emiiqc-62">
          <mxGeometry relative="1" as="geometry" />
        </mxCell>
        <mxCell id="FDjeqGqszoiqw4Emiiqc-54" value="Ange summa&lt;br&gt;Ange kontonummer" style="rounded=0;whiteSpace=wrap;html=1;" vertex="1" parent="WIyWlLk6GJQsqaUBKTNV-1">
          <mxGeometry x="340" y="600" width="120" height="60" as="geometry" />
        </mxCell>
        <mxCell id="FDjeqGqszoiqw4Emiiqc-65" value="" style="edgeStyle=orthogonalEdgeStyle;rounded=0;orthogonalLoop=1;jettySize=auto;html=1;" edge="1" parent="WIyWlLk6GJQsqaUBKTNV-1" source="FDjeqGqszoiqw4Emiiqc-55" target="WIyWlLk6GJQsqaUBKTNV-3">
          <mxGeometry relative="1" as="geometry" />
        </mxCell>
        <mxCell id="FDjeqGqszoiqw4Emiiqc-55" value="Actor" style="shape=umlActor;verticalLabelPosition=bottom;verticalAlign=top;html=1;outlineConnect=0;" vertex="1" parent="WIyWlLk6GJQsqaUBKTNV-1">
          <mxGeometry x="205" y="-170" width="30" height="60" as="geometry" />
        </mxCell>
        <mxCell id="FDjeqGqszoiqw4Emiiqc-57" value="*Externt" style="rounded=0;whiteSpace=wrap;html=1;" vertex="1" parent="WIyWlLk6GJQsqaUBKTNV-1">
          <mxGeometry x="340" y="480" width="120" height="60" as="geometry" />
        </mxCell>
        <mxCell id="FDjeqGqszoiqw4Emiiqc-61" value="" style="edgeStyle=orthogonalEdgeStyle;rounded=0;orthogonalLoop=1;jettySize=auto;html=1;" edge="1" parent="WIyWlLk6GJQsqaUBKTNV-1" source="FDjeqGqszoiqw4Emiiqc-58" target="FDjeqGqszoiqw4Emiiqc-60">
          <mxGeometry relative="1" as="geometry" />
        </mxCell>
        <mxCell id="FDjeqGqszoiqw4Emiiqc-58" value="Lokalt" style="rounded=1;whiteSpace=wrap;html=1;fontSize=12;glass=0;strokeWidth=1;shadow=0;" vertex="1" parent="WIyWlLk6GJQsqaUBKTNV-1">
          <mxGeometry x="530" y="490" width="120" height="40" as="geometry" />
        </mxCell>
        <mxCell id="FDjeqGqszoiqw4Emiiqc-60" value="Amge summa&lt;br&gt;Välj konto från lista?" style="rounded=1;whiteSpace=wrap;html=1;fontSize=12;glass=0;strokeWidth=1;shadow=0;" vertex="1" parent="WIyWlLk6GJQsqaUBKTNV-1">
          <mxGeometry x="530" y="610" width="120" height="40" as="geometry" />
        </mxCell>
        <mxCell id="FDjeqGqszoiqw4Emiiqc-62" value="&quot;Är du säker?&quot;" style="rounded=0;whiteSpace=wrap;html=1;" vertex="1" parent="WIyWlLk6GJQsqaUBKTNV-1">
          <mxGeometry x="340" y="700" width="120" height="60" as="geometry" />
        </mxCell>
      </root>
    </mxGraphModel>
  </diagram>
</mxfile>
